<svg height="34" viewBox="0 0 34 34" width="34" xmlns="http://www.w3.org/2000/svg"><g fill="none"><circle cx="17" cy="17" fill="#ffbc5c" r="17"/><path d="m19.5891968 11.15625c.1824636 0 .3303904.1587492.3303684.3545619v11.3932571c0 .1958364-.1479268.354562-.3303904.354562h-9.90878434c-.18246364 0-.33039046-.1587256-.33039046-.354562v-11.3932571c0-.1958127.14792682-.3545619.33039046-.3545619zm-2.591022 3.2523092-3.2201778 3.6802032-1.0583797-1.0583797c-.2766214-.2766214-.7251132-.2766214-1.0017346 0s-.2766214.7251132 0 1.0017346l2.1291203 2.1291203 4.2173222-4.8197968c.2576081-.2944093.2277748-.7419078-.0666344-.999516-.2944093-.2576081-.7419078-.2277748-.999516.0666344zm6.9080752 5.2476908v1.9641504c0 .1048821-.0310452.2074174-.0892233.2946845l-.9732767 1.4599151-.9732767-1.4599151c-.0581781-.0872671-.0892233-.1898024-.0892233-.2946845v-1.9641504-5.84375h2.125zm0-6.90625h-1.0625-1.0625v-1.0625c0-.2934013.2378487-.53125.53125-.53125h1.0625c.2934013 0 .53125.2378487.53125.53125z" fill="#fff"/></g></svg>