<svg xmlns="http://www.w3.org/2000/svg" xmlns:xlink="http://www.w3.org/1999/xlink" width="21" height="20"><defs><path id="a" d="M477.8 375a10 10 0 1 1 20 0 10 10 0 0 1-20 0z"/><path id="b" d="M491 377.78c.09.1.09.25 0 .35a.23.23 0 0 1-.34 0l-.59-.6a.25.25 0 0 1 0-.36c.1-.1.24-.1.34 0zm-5.8-5.35a.25.25 0 0 1 0-.35c.1-.1.24-.1.33 0l.6.61c.09.1.09.25 0 .35a.23.23 0 0 1-.34 0zm4.87.61a.25.25 0 0 1 0-.35l.6-.6c.1-.1.24-.1.34 0 .09.09.09.24 0 .34l-.6.61a.24.24 0 0 1-.34 0zm-3.95 4.13c.1.1.1.25 0 .35l-.59.61a.23.23 0 0 1-.33 0 .25.25 0 0 1 0-.35l.59-.6c.09-.1.24-.1.33 0zm6.08-2.07c0 .13-.11.24-.24.24h-.83a.24.24 0 0 1 0-.48h.83c.13 0 .24.11.24.24zm-7.13.24h-.83a.24.24 0 0 1 0-.48h.83a.24.24 0 0 1 0 .48zm2.8-3.4v-.86c0-.14.1-.25.23-.25.14 0 .25.11.25.25v.86c0 .13-.11.24-.25.24a.24.24 0 0 1-.24-.24zm.47 1.84c0-.13-.11-.25-.24-.25-.84 0-1.52.71-1.52 1.58 0 .14.1.25.24.25.13 0 .23-.11.23-.25 0-.6.47-1.08 1.05-1.08.13 0 .24-.11.24-.25zm1.86 1.33a2.2 2.2 0 0 1-.59 1.52c-.28.3-.46.68-.52 1.1a.35.35 0 0 1-.34.3h-1.3a.35.35 0 0 1-.35-.3c-.06-.41-.24-.8-.52-1.1a2.23 2.23 0 0 1-.59-1.5 2.15 2.15 0 0 1 2.1-2.21c1.16-.01 2.11.97 2.11 2.19zm-1.13 3.51v.26a.4.4 0 0 1-.33.41l-.07.24a.28.28 0 0 1-.27.21h-.6a.28.28 0 0 1-.28-.21l-.06-.24a.4.4 0 0 1-.34-.4v-.27c0-.14.11-.25.24-.25h1.47c.13 0 .24.12.24.25z"/></defs><use fill="#eb7c7c" xlink:href="#a" transform="translate(-477 -365)"/><use fill="#fff" xlink:href="#b" transform="translate(-477 -365)"/></svg>