<svg height="41" viewBox="0 0 41 41" width="41" xmlns="http://www.w3.org/2000/svg" xmlns:xlink="http://www.w3.org/1999/xlink"><defs><circle id="a" cx="20" cy="20" r="20"/></defs><g fill="none" fill-rule="evenodd"><g fill-rule="nonzero" transform="translate(.2 .133333)"><use fill="#59bcee" xlink:href="#a"/><use fill="#51c6ab" xlink:href="#a"/></g><g transform="translate(10 8)"><path d="m10.8928759 3.38775938c5.1045595.44378049 9.1071241 4.65602739 9.1071241 9.78680432 0 5.4264386-4.4771525 9.8254363-10 9.8254363s-10-4.3989977-10-9.8254363c0-5.00568118 3.80976738-9.13707649 8.73576182-9.74766505l-1.87704422-3.01692322.6825648-.40997543 2.08785823 3.35575896c.12306529-.00440831.24669808-.00663162.37085937-.00663162.0291019 0 .0581747.00012214.087218.00036594l.5826544-3.21343743.787599.13786373zm-4.16250905 11.77547262c-.09579857.0037337-.18566506.046579-.2479338.1182064s-.09128967.1655377-.0800662.2590903c.13569682 1.8852654 1.70896808 3.359571 3.63199995 3.4035312 1.9036466-.0551152 3.4574789-1.5139695 3.6-3.3799501.0136774-.1065925-.0195434-.2138588-.0913311-.2948984-.0717876-.0810397-.1753331-.128166-.2846689-.1295605z" fill="#fff"/><g stroke="#51c6ab"><path d="m8 11.5c0-.8284271-.67157288-1.5-1.5-1.5s-1.5.6715729-1.5 1.5"/><path d="m15 11.5c0-.8284271-.6715729-1.5-1.5-1.5s-1.5.6715729-1.5 1.5"/></g></g></g></svg>
