<svg width="65" height="65" xmlns="http://www.w3.org/2000/svg" xmlns:xlink="http://www.w3.org/1999/xlink"><defs><circle id="a" cx="32.5" cy="32.5" r="32.5"/></defs><g fill="none" fill-rule="evenodd"><g fill-rule="nonzero"><use fill="#59BCEE" xlink:href="#a"/><use fill="#5187C6" xlink:href="#a"/></g><path d="M34.511 43.063l-1.028-3.914H26.7l-1.057 3.914h-6.198l6.812-20.967h7.527l6.898 20.966h-6.17zm-2.199-8.541H27.87c.867-3.276 1.426-5.47 1.678-6.584.253-1.114.422-1.914.507-2.4.096.524.293 1.39.593 2.6.3 1.209.555 2.194.764 2.956l.9 3.428zm11.898-4.37h-3.542V27.6h3.542v-3.495h2.561V27.6h3.542v2.551h-3.542v3.438H44.21V30.15z" fill="#FFF"/></g></svg>
