<svg xmlns="http://www.w3.org/2000/svg" xmlns:xlink="http://www.w3.org/1999/xlink" width="20" height="20"><defs><path id="a" d="M477 304a10 10 0 1 1 20 0 10 10 0 0 1-20 0z"/><path id="b" d="M486.75 302.2c.03.03.04.08.04.13v4.26c-.8-.77-1.97-.9-2.67-.9-.16 0-.3-.12-.3-.27v-4.07c0-.07.03-.14.1-.2a.31.31 0 0 1 .2-.07c.7 0 1.97.15 2.63 1.11zm3.05 3.5c-.7 0-1.86.12-2.67.89v-4.26c0-.05.02-.1.05-.14.66-.96 1.93-1.1 2.63-1.11.08 0 .15.03.2.08.06.05.1.12.1.2v4.06c0 .15-.14.27-.3.27zm1.35-3.37v4.31c0 .08-.03.16-.1.21a.28.28 0 0 1-.24.06 6.88 6.88 0 0 0-2.95-.06c.64-.6 1.55-.7 2.1-.7a.7.7 0 0 0 .71-.7v-3.4h.2c.16 0 .28.13.28.28zm-7.13 3.82c.56 0 1.47.1 2.11.7a6.92 6.92 0 0 0-2.96.06.28.28 0 0 1-.23-.06.27.27 0 0 1-.11-.2v-4.32c0-.15.13-.28.28-.28h.2v3.4c0 .39.32.7.71.7z"/></defs><use fill="#eb7c7c" xlink:href="#a" transform="translate(-477 -294)"/><use fill="#fff" xlink:href="#b" transform="translate(-477 -294)"/></svg>