<svg xmlns="http://www.w3.org/2000/svg" xmlns:xlink="http://www.w3.org/1999/xlink" width="20" height="20"><defs><path id="a" d="M477 237a10 10 0 1 1 20 0 10 10 0 0 1-20 0z"/><path id="b" d="M488.17 235.93l-1.74.9a.27.27 0 0 1-.39-.23v-1.8a.27.27 0 0 1 .4-.24l1.73.9a.27.27 0 0 1 0 .47zm-4.33 4.02h-.52c-.13 0-.24.11-.24.24 0 .14.1.25.24.25h.52c.11.41.5.72.95.72.46 0 .84-.3.95-.72h4.93c.14 0 .25-.11.25-.25a.24.24 0 0 0-.25-.24h-4.93a.98.98 0 0 0-.95-.72c-.46 0-.84.3-.95.72zm7-6.62c-.3-.36-.86-.5-1.92-.5h-3.85c-1.08 0-1.65.15-1.95.53-.29.37-.29.91-.29 1.66v1.43c0 1.45.35 2.2 2.24 2.2h3.85c.92 0 1.43-.13 1.76-.45.34-.32.48-.84.48-1.75v-1.43c0-.79-.02-1.34-.32-1.7z"/></defs><use fill="#eb7c7c" xlink:href="#a" transform="translate(-477 -227)"/><use fill="#fff" xlink:href="#b" transform="translate(-477 -227)"/></svg>