<svg xmlns="http://www.w3.org/2000/svg" xmlns:xlink="http://www.w3.org/1999/xlink" width="20" height="20"><defs><path id="a" d="M850 168a10 10 0 1 1 20 0 10 10 0 0 1-20 0z"/><path id="b" d="M861.64 167.62l.02-.26s-.06.14-.13.24l-.37.54h.48zm-1.1.66l.96-1.45h.73v1.32h.3v.49h-.3v.57h-.6v-.57h-1.08v-.36zm-1.99.67c0-.87 1.07-1.03 1.07-1.37 0-.17-.14-.24-.26-.24-.24 0-.37.25-.37.25l-.45-.28s.23-.52.87-.52c.4 0 .84.23.84.73 0 .74-1 .89-1 1.2h1.04v.5h-1.71a1.4 1.4 0 0 1-.03-.27zm2.92 3.86c-.52.5-2.46.03-4.38-1.82-1.92-1.84-2.42-3.7-1.9-4.2.46-.44 1-1.2 1.83-.21.83.98.42 1.26-.04 1.7-.33.32.35 1.11 1.06 1.8.71.68 1.54 1.33 1.86 1.02.47-.45.75-.84 1.78-.04 1.03.79.24 1.32-.21 1.75zm3.53-4.53c0 1.64-.95 3.06-2.35 3.78a1.03 1.03 0 0 0-.08-.69 3.65 3.65 0 0 0 1.75-2.65l-.78-.44.78-.44a3.74 3.74 0 0 0-3.32-3.18l-.46.74-.45-.74c-1.13.13-2.1.73-2.7 1.6a2.15 2.15 0 0 0-.5-.43 4.5 4.5 0 0 1 3.65-1.83 4.38 4.38 0 0 1 4.46 4.28z"/></defs><use fill="#eb77a1" xlink:href="#a" transform="translate(-850 -158)"/><use fill="#fff" xlink:href="#b" transform="translate(-850 -158)"/></svg>