<svg xmlns="http://www.w3.org/2000/svg" xmlns:xlink="http://www.w3.org/1999/xlink" width="157" height="116"><defs><path id="a" d="M964.283 1836.614c.191 1.002.266 1.516.363 2.535-1.911-2.264-4.224-4.46-8.323-6.69-4.099 2.23-6.412 4.426-8.323 6.69.097-1.019.172-1.533.363-2.535 1.797-1.904 4.063-3.52 6.524-4.9-1.947-.966-4.254-1.939-7.033-2.928-1.486 1.612-9.605 6.835-16.033 7.085-2.402.097-4.597-.194-6.019-.379 4.174-4.39 7.119-6.978 20.006-7.41-3.22-1.075-6.817-2.124-9.801-3.018-1.433 1.67-9.161 6.822-16.773 6.212-2.568-.196-4.873-.829-6.355-1.257 2.853-2.017 5.533-3.531 8.132-4.316 2.413-.725 10.54-1.116 13.042-1.227-3.358-1.014-6.662-2.059-9.948-3.288-1.476 1.457-11.463 7.908-24.073.581 9.466-3.177 9.895-1.983 22.297-1.263-3.341-1.321-6.524-2.793-9.633-4.616-3.245 2.189-13.827 4.602-23.414-5.854 9.796.05 10.192 1.25 17.662 3.692a89.114 89.114 0 0 0 4.253 1.254c-3.023-1.896-5.859-4.105-8.501-6.786-.166.054-.345.1-.536.139-.199.04-.411.072-.634.097-8.566.88-14.893-4.411-19.089-12.048 9.194 2.293 9.413 4.015 15.416 8.185.628.46 1.272.871 1.846 1.268.594.379 1.132.734 1.615 1.03l.28.17c-2.503-2.736-4.625-5.803-6.344-9.022-4.44.072-13-4.221-16.472-15.772 7.487 3.871 8.366 5.617 12.168 10.222.24.297.48.591.726.878a183.41 183.41 0 0 0 2.945 3.446 65.407 65.407 0 0 1-4.091-10.417c-2.753-.558-11.751-5.655-12.526-18.657 7.525 6.457 6.562 7.452 12.201 17.531a61.971 61.971 0 0 1-2.025-11.199c-3.731-1.636-9.708-9.012-8.15-20.504 5.841 7.746 4.777 8.477 8.075 19.596-.289-3.838-.192-7.885.224-11.628-2.111-1.517-7.607-9.922-3.88-21.277 3.975 8.206 3.079 8.651 3.946 20.697.454-3.797 1.199-7.542 2.417-11.683-1.698-1.784-2.655-6.618-2.924-9.097-.515-4.48 1.002-8.486 2.946-12.158.852 3.149 1.425 5.944 1.498 8.422.029.886-.09 2.071-.244 3.371-.155 1.299-.359 2.708-.54 4.037-.333 2.41-.588 4.555-.69 5.271a77.405 77.405 0 0 1 2.376-6.792c.157-.401.294-.719.394-.959.043-.788.275-2.141.647-3.599.465-1.857 1.163-3.87 1.745-5.093 1.962-4.147 4.465-6.417 7.525-8.651-.796 2.592-1.707 6.117-4.52 10.705-.661 1.07-1.868 2.721-2.96 4.196-.822 1.102-1.577 2.107-2.054 2.619-.094.229-.217.524-.357.886-3.105 7.798-4.933 16.206-5.089 24.659a60.756 60.756 0 0 0 .121 4.991c.023-1.834.407-3.618.958-5.174 1.487-4.142 4.351-7.943 8.716-8.903-.942 6.618-5.244 10.296-6.244 11.309-1.303 1.294-2.622 2.605-3.404 3.199a60.395 60.395 0 0 0 1.882 11.369c-.2-1.529-.101-3.222.176-4.795.756-4.458 3.061-8.73 7.324-10.48.004 5.22-2.211 11.078-7.284 16.091.985 3.58 2.347 7.166 4.014 10.666-1.388-5.217-.454-12.964 5.039-16.553.903 5.877-.499 12.034-4.613 17.428 1.669 3.346 3.774 6.533 6.275 9.375l-.002-.004a10.808 10.808 0 0 1-.576-1.245c-2.159-5.384-1.797-11.65 2.634-15.974 2.358 7.069-.215 15.499-1.352 18.005l.109.12c2.603 2.797 5.404 5.077 8.538 7.103-3.134-3.574-6.408-10.951-2.073-17.278 3.429 6.832 3.749 14.068 2.97 17.845 3.222 1.992 6.551 3.581 10.123 5.006-5.117-4.347-8.513-10.365-6.3-17.084a43.475 43.475 0 0 1 2.662 3.156c4.359 5.807 4.711 12.987 4.628 14.315 3.586 1.383 7.137 2.501 10.806 3.591-8.78-6.775-9.834-11.723-9.485-16.915.864.626 2.244 1.589 3.761 2.926 1.51 1.34 3.171 3.054 4.415 5.259.425.76 1.028 2.46 1.521 4.295.444 1.667.788 3.443.757 4.721 3.917 1.154 7.357 2.108 11.018 3.283-2.177-1.916-7.063-6.428-8.64-8.938-1.406-2.224-2.211-5.109-2.507-8.47 1.078.613 2.82 1.533 4.7 2.896 5.831 4.235 7.801 10.091 7.345 14.804 3.106 1.022 6.543 2.299 9.75 3.94 3.207-1.641 6.644-2.918 9.75-3.94-.456-4.713 1.514-10.569 7.345-14.804 1.88-1.363 3.622-2.283 4.7-2.896-.296 3.361-1.101 6.246-2.507 8.47-1.577 2.51-6.463 7.022-8.64 8.938 3.661-1.175 7.101-2.129 11.018-3.283-.031-1.278.313-3.054.757-4.721.493-1.835 1.096-3.535 1.521-4.295 1.244-2.205 2.905-3.919 4.415-5.259 1.517-1.337 2.897-2.3 3.761-2.926.349 5.192-.705 10.14-9.485 16.915 3.669-1.09 7.22-2.208 10.806-3.591-.083-1.328.269-8.508 4.628-14.315a43.475 43.475 0 0 1 2.662-3.156c2.213 6.719-1.183 12.737-6.3 17.084 3.572-1.425 6.901-3.014 10.123-5.006-.779-3.777-.459-11.013 2.97-17.845 4.335 6.327 1.061 13.704-2.073 17.278 3.134-2.026 5.935-4.306 8.538-7.103l.109-.12c-1.137-2.506-3.71-10.936-1.352-18.005 4.431 4.324 4.793 10.59 2.634 15.974a10.808 10.808 0 0 1-.578 1.25c2.501-2.843 4.606-6.03 6.275-9.376-4.114-5.394-5.516-11.551-4.613-17.428 5.493 3.589 6.427 11.336 5.039 16.553 1.667-3.5 3.029-7.086 4.014-10.666-5.073-5.013-7.288-10.871-7.284-16.091 4.263 1.75 6.568 6.022 7.324 10.48.277 1.573.376 3.266.176 4.795a60.395 60.395 0 0 0 1.882-11.369c-.782-.594-2.101-1.905-3.404-3.199-1-1.013-5.302-4.691-6.244-11.309 4.365.96 7.229 4.761 8.716 8.903.551 1.556.935 3.34.958 5.174.107-1.706.153-3.375.121-4.991-.156-8.453-1.984-16.861-5.089-24.659-.14-.362-.263-.657-.357-.886-.477-.512-1.232-1.517-2.054-2.619-1.092-1.475-2.299-3.126-2.96-4.196-2.813-4.588-3.724-8.113-4.52-10.705 3.06 2.234 5.563 4.504 7.525 8.651.582 1.223 1.28 3.236 1.745 5.093.372 1.458.604 2.811.647 3.599.1.24.237.558.394.959a77.405 77.405 0 0 1 2.376 6.792c-.102-.716-.357-2.861-.69-5.271-.181-1.329-.385-2.738-.54-4.037-.154-1.3-.273-2.485-.244-3.371.073-2.478.646-5.273 1.498-8.422 1.944 3.672 3.461 7.678 2.946 12.158-.269 2.479-1.226 7.313-2.924 9.097 1.218 4.141 1.963 7.886 2.417 11.683.867-12.046-.029-12.491 3.946-20.697 3.727 11.355-1.769 19.76-3.88 21.277.416 3.743.513 7.79.224 11.628 3.298-11.119 2.234-11.85 8.075-19.596 1.558 11.492-4.419 18.868-8.15 20.504a61.971 61.971 0 0 1-2.025 11.199c5.639-10.079 4.676-11.074 12.201-17.531-.775 13.002-9.773 18.099-12.526 18.657a65.407 65.407 0 0 1-4.091 10.417 183.41 183.41 0 0 0 2.945-3.446c.246-.287.486-.581.726-.878 3.802-4.605 4.681-6.351 12.168-10.222-3.472 11.551-12.032 15.844-16.472 15.772-1.719 3.219-3.841 6.286-6.344 9.022l.28-.17c.483-.296 1.021-.651 1.615-1.03.574-.397 1.218-.808 1.846-1.268 6.003-4.17 6.222-5.892 15.416-8.185-4.196 7.637-10.523 12.928-19.089 12.048a7.428 7.428 0 0 1-.634-.097 4.915 4.915 0 0 1-.536-.139c-2.642 2.681-5.478 4.89-8.501 6.786a89.114 89.114 0 0 0 4.253-1.254c7.47-2.442 7.866-3.642 17.662-3.692-9.587 10.456-20.169 8.043-23.414 5.854-3.109 1.823-6.292 3.295-9.633 4.616 12.402-.72 12.831-1.914 22.297 1.263-12.61 7.327-22.597.876-24.073-.581-3.286 1.229-6.59 2.274-9.948 3.288 2.502.111 10.629.502 13.042 1.227 2.599.785 5.279 2.299 8.132 4.316-1.482.428-3.787 1.061-6.355 1.257-7.612.61-15.34-4.542-16.773-6.212-2.984.894-6.581 1.943-9.801 3.018 12.887.432 15.832 3.02 20.006 7.41-1.422.185-3.617.476-6.019.379-6.428-.25-14.547-5.473-16.033-7.085-2.779.99-5.086 1.962-7.033 2.928 2.461 1.38 4.727 2.996 6.524 4.9"/></defs><use fill="#5C9079" xlink:href="#a" transform="translate(-878 -1724)"/></svg>
