<svg width="40" height="40" xmlns="http://www.w3.org/2000/svg"><g fill-rule="nonzero" fill="none"><circle fill="#FFBC5C" cx="19.765" cy="19.765" r="19.765"/><path d="M22.775 12.97c.212 0 .384.185.384.413v13.246c0 .228-.172.412-.384.412h-11.52c-.212 0-.384-.184-.384-.412V13.383c0-.228.172-.412.384-.412h11.52zm-3.012 3.782l-3.744 4.279-1.23-1.231a.824.824 0 0 0-1.165 1.165l2.475 2.475 4.903-5.604a.824.824 0 0 0-1.24-1.084zm8.031 6.1v2.285a.618.618 0 0 1-.104.342l-1.131 1.697-1.132-1.697a.618.618 0 0 1-.103-.342v-9.078h2.47v6.794zm0-8.028h-2.47v-1.236c0-.34.276-.617.617-.617h1.235c.342 0 .618.276.618.617v1.236z" fill="#FFF"/></g></svg>
