<svg xmlns="http://www.w3.org/2000/svg" xmlns:xlink="http://www.w3.org/1999/xlink" width="21" height="20"><defs><path id="a" d="M663.8 375a10 10 0 1 1 20 0 10 10 0 0 1-20 0z"/><path id="b" d="M672.53 376c.07-.07.13-.05.13.04V378h-.75v-1.24c0-.1.06-.22.13-.3zm3.27-1.18c.07-.07.12-.04.12.05V378h-.73v-2.4c0-.1.05-.24.12-.3zm1.05-1c.07-.07.12-.04.12.05V378h-.69v-3.46c0-.1.06-.23.13-.3zm-2.14 2.05c.07-.06.12-.04.12.05V378h-.73v-1.36c0-.1.03-.2.07-.24l.07-.07zm-1.2.46l.12.11c.07.07.12.2.12.29V378H673v-1.99c0-.1.06-.12.13-.05zm-2.06.72c.07-.07.13-.05.13.05v.9h-.85v-.14c0-.07.06-.19.13-.25l.24-.24zm5.53-4.07l-2.98 2.87a.18.18 0 0 1-.25 0l-.9-.87-1.61 1.55a.73.73 0 0 1-1.01 0l-.02-.01a.67.67 0 0 1 0-.98l2.51-2.42a.18.18 0 0 1 .25 0l.9.87 1.72-1.64.36-.36-.9-.87c-.07-.07-.04-.12.05-.12h2.54c.18 0 .36.15.36.33v2.46c0 .1-.06.12-.13.05z"/></defs><use fill="#59bcee" xlink:href="#a" transform="translate(-663 -365)"/><use fill="#fff" xlink:href="#b" transform="translate(-663 -365)"/></svg>