<svg xmlns="http://www.w3.org/2000/svg" xmlns:xlink="http://www.w3.org/1999/xlink" width="20" height="20"><defs><path id="a" d="M850 237a10 10 0 1 1 20 0 10 10 0 0 1-20 0z"/><path id="b" d="M857.95 233.17c0-1.2.92-2.17 2.05-2.17 1.12 0 2.04.97 2.04 2.17s-.92 2.17-2.04 2.17c-1.13 0-2.05-.97-2.05-2.17zm6.05 5.04v2.98c0 .45-.34.81-.76.81h-6.48a.79.79 0 0 1-.76-.8v-2.98c0-.83.48-1.63 1.25-1.83.28-.07 1.12-.2 1.14-.2.07 0 .14.05.17.13l1.23 3.57c.07.21.35.21.42 0l1.23-3.57c.03-.1.13-.15.23-.12 0 0 .81.12 1.08.2a1.9 1.9 0 0 1 1.25 1.8zm-3.53-2.08c.07.1.08.22.03.32l-.3.46.14 1.21-.26.75a.08.08 0 0 1-.16 0l-.26-.75.13-1.21-.29-.46a.28.28 0 0 1 .03-.32.26.26 0 0 1 .2-.08h.54c.07 0 .15.03.2.08z"/></defs><use fill="#eb77a1" xlink:href="#a" transform="translate(-850 -227)"/><use fill="#fff" xlink:href="#b" transform="translate(-850 -227)"/></svg>